<?xml version="1.0" standalone="no"?>
<!DOCTYPE svg PUBLIC "-//W3C//DTD SVG 20010904//EN"
 "http://www.w3.org/TR/2001/REC-SVG-20010904/DTD/svg10.dtd">
<svg version="1.0" xmlns="http://www.w3.org/2000/svg"
 width="1904.000000pt" height="1904.000000pt" viewBox="0 0 1904.000000 1904.000000"
 preserveAspectRatio="xMidYMid meet">
<metadata>
Created by potrace 1.11, written by Peter Selinger 2001-2013
</metadata>
<g transform="translate(0.000000,1904.000000) scale(0.100000,-0.100000)"
fill="#000000" stroke="none">
<path d="M2067 12304 c-1 -1 -43 -5 -94 -8 -118 -7 -249 -28 -298 -46 -14 -5
-25 -8 -25 -5 0 2 -19 -3 -42 -11 -24 -9 -50 -17 -58 -19 -33 -7 -180 -69
-255 -108 -175 -90 -357 -223 -461 -337 -13 -14 -39 -43 -60 -65 -118 -129
-228 -304 -322 -515 -17 -38 -79 -222 -86 -255 -1 -5 -5 -23 -9 -40 -8 -37
-16 -79 -22 -125 -3 -19 -8 -51 -11 -70 -14 -86 -16 -188 -18 -1090 -1 -525
-5 -962 -9 -970 -3 -8 -8 -31 -11 -50 -15 -104 -104 -292 -169 -359 -44 -46
-46 -35 21 -109 l23 -26 37 23 c90 54 233 114 304 127 18 3 47 8 63 11 104 18
321 9 490 -20 17 -3 50 -9 75 -12 25 -4 52 -9 60 -10 8 -2 35 -6 60 -9 25 -3
54 -8 65 -10 11 -2 63 -9 115 -16 52 -6 106 -13 120 -15 55 -9 97 -15 145 -20
50 -5 84 -10 140 -20 17 -3 53 -8 80 -12 28 -3 55 -9 61 -14 6 -5 13 -6 16 -3
3 2 34 0 69 -6 74 -13 94 -16 206 -35 46 -8 88 -12 95 -10 7 3 24 26 38 51 14
25 119 197 233 382 115 185 214 346 220 357 7 11 14 22 17 25 3 3 14 21 24 40
11 19 23 37 27 40 12 8 -2 23 -52 58 l-46 31 -29 -36 c-27 -34 -86 -93 -144
-143 -92 -81 -250 -160 -354 -178 -79 -14 -328 -7 -436 12 -14 2 -52 8 -85 11
-106 13 -119 15 -175 25 -180 31 -472 33 -572 4 -9 -3 -25 -6 -35 -9 -85 -17
-230 -88 -368 -179 l-100 -67 66 68 c79 81 139 156 139 172 0 6 4 11 8 11 5 0
29 42 54 93 104 210 97 128 98 1267 1 542 3 999 4 1015 12 101 19 151 23 158
2 4 7 20 9 35 13 75 105 301 127 310 4 2 7 9 7 15 0 19 107 150 160 197 28 25
58 51 65 58 7 6 18 12 23 12 6 0 12 4 14 8 5 13 94 61 152 82 110 41 270 58
369 40 68 -13 183 -70 229 -115 78 -75 134 -186 137 -273 0 -24 3 -47 5 -51 9
-15 -24 -163 -48 -217 -51 -110 -172 -252 -291 -339 -22 -16 -42 -31 -45 -34
-7 -9 -120 -83 -155 -102 -33 -19 -35 -33 -10 -93 14 -32 20 -37 38 -32 12 4
32 9 45 12 22 4 124 42 187 69 17 7 40 16 53 20 12 3 22 11 22 16 0 5 9 9 20
9 11 0 20 4 20 10 0 5 3 9 8 8 15 -5 216 124 291 187 37 30 183 176 211 210
72 87 145 222 170 315 33 121 29 269 -8 365 -32 83 -124 192 -191 227 -14 7
-28 16 -31 19 -6 6 -89 40 -110 44 -8 2 -33 8 -55 13 -60 16 -258 35 -268 26z"/>
<path d="M11010 11470 c-58 -21 -168 -60 -245 -87 l-140 -48 -3 -498 -2 -497
-28 -1 c-15 -1 -54 -2 -88 -2 l-61 0 -42 -96 c-22 -53 -41 -101 -41 -108 0 -6
-4 -13 -8 -15 -5 -1 -12 -15 -16 -30 -8 -33 -20 -30 149 -32 l130 -1 2 -720
c2 -396 3 -722 3 -725 9 -187 24 -254 71 -323 49 -72 136 -134 199 -142 16 -2
33 -6 38 -9 18 -11 138 -9 197 3 51 11 168 59 200 83 81 60 149 138 197 225
24 43 24 44 -18 86 l-37 36 -45 -50 c-91 -102 -197 -126 -253 -58 -14 17 -27
37 -28 43 -4 26 -6 1546 -1 1547 3 1 97 2 209 3 l205 2 27 65 c26 60 47 113
49 124 0 3 9 24 19 49 l19 43 -260 -1 c-163 -1 -262 3 -267 9 -4 6 -7 270 -7
588 1 379 -2 577 -9 576 -5 0 -57 -18 -115 -39z"/>
<path d="M13866 10403 c-3 -4 -48 -21 -99 -38 -50 -18 -99 -34 -107 -38 -8 -3
-71 -24 -140 -47 -69 -24 -132 -46 -140 -51 -9 -4 -15 -24 -16 -51 -1 -24 -5
-59 -8 -78 -3 -19 -12 -87 -21 -150 -8 -63 -17 -122 -20 -130 -2 -8 -6 -35 -9
-60 -3 -25 -10 -60 -15 -77 -5 -18 -8 -33 -6 -33 3 0 0 -11 -5 -24 -5 -13 -12
-44 -15 -67 -4 -24 -13 -69 -21 -99 -9 -30 -17 -66 -20 -80 -13 -65 -100 -302
-148 -403 -93 -199 -212 -358 -278 -372 -44 -10 -85 11 -98 51 -8 24 -12 241
-14 707 -2 613 -4 677 -20 727 -51 156 -133 234 -280 264 -75 16 -170 13 -241
-8 -65 -19 -153 -70 -215 -124 -55 -49 -160 -190 -160 -216 0 -6 16 -29 36
-50 l35 -37 21 26 c33 43 97 99 126 112 33 15 97 16 122 3 10 -5 29 -27 41
-47 l23 -38 3 -755 c2 -415 4 -766 6 -780 11 -86 22 -131 43 -172 56 -112 129
-158 253 -162 142 -4 234 37 356 159 44 44 86 89 93 100 7 11 35 54 62 94 28
41 50 80 50 87 0 7 3 14 8 16 9 4 63 118 102 213 4 11 15 36 23 55 18 42 111
317 128 380 7 25 14 50 15 55 2 6 6 23 9 39 3 16 8 33 10 36 2 4 7 20 10 36
20 113 23 35 20 -626 -1 -393 -5 -735 -9 -760 -3 -25 -8 -72 -11 -105 -4 -33
-8 -67 -10 -75 -3 -8 -7 -35 -10 -60 -8 -68 -50 -219 -80 -285 -94 -214 -235
-296 -420 -244 -94 26 -235 100 -294 155 -38 35 -38 35 -101 -46 -19 -25 -40
-51 -47 -58 -7 -7 -13 -16 -13 -20 0 -4 -15 -23 -33 -43 -35 -41 -40 -47 -111
-138 l-49 -63 23 -18 c62 -47 199 -105 273 -116 16 -2 32 -6 37 -9 11 -7 177
-7 210 -1 118 24 181 41 213 57 20 11 37 17 37 14 0 -13 233 121 277 160 6 5
26 21 44 35 42 31 184 174 224 225 106 133 212 324 270 486 20 57 38 111 40
119 2 8 4 16 5 18 3 2 2 1 15 57 5 22 9 42 10 45 3 11 18 107 22 140 7 56 9
2181 2 2185 -3 3 -9 2 -13 -2z"/>
<path d="M4164 10374 c-16 -7 -54 -22 -84 -34 -71 -29 -155 -70 -205 -101 -22
-13 -52 -31 -67 -38 -16 -8 -28 -18 -28 -23 0 -4 -5 -8 -11 -8 -13 0 -138
-102 -203 -166 -48 -48 -129 -142 -154 -180 -81 -124 -140 -246 -176 -364 -24
-82 -28 -97 -44 -185 -8 -49 -9 -317 0 -365 13 -74 21 -106 35 -150 19 -61 91
-205 108 -220 8 -7 15 -18 15 -24 0 -6 8 -19 18 -28 9 -10 33 -36 52 -60 40
-50 163 -158 179 -158 6 0 11 -4 11 -9 0 -10 192 -105 235 -116 44 -12 45 -12
48 -15 1 -1 11 -3 22 -6 163 -36 353 -37 480 -3 22 6 47 12 55 14 26 5 103 38
150 63 25 14 55 30 67 36 13 6 23 14 23 19 0 4 6 7 13 7 6 0 26 14 44 30 18
17 35 30 39 30 12 0 169 167 211 227 116 160 201 374 238 596 12 78 13 305 0
362 -4 17 -8 39 -10 50 -18 109 -116 349 -164 402 -9 10 -25 32 -35 48 -24 37
-166 185 -178 185 -5 0 -15 6 -23 13 -7 6 -22 19 -32 28 -23 19 -181 97 -205
101 -17 3 -228 -147 -228 -163 0 -5 -6 -9 -14 -9 -12 0 -226 -199 -226 -211 0
-3 12 -6 28 -7 83 -7 210 -61 303 -128 67 -49 179 -157 179 -173 0 -5 4 -11 8
-13 11 -4 81 -108 116 -171 28 -52 74 -159 81 -192 3 -11 12 -51 21 -90 25
-113 21 -268 -11 -393 -17 -64 -65 -172 -76 -172 -5 0 -9 -6 -9 -14 0 -22
-103 -121 -161 -153 -73 -41 -155 -64 -247 -67 -79 -3 -195 16 -219 35 -7 6
-13 9 -13 5 0 -3 -24 9 -52 26 -229 139 -373 446 -371 788 0 69 5 143 11 165
6 22 14 54 17 72 6 40 54 170 89 243 93 197 227 368 401 515 33 28 65 55 71
60 9 7 1 22 -27 56 -41 49 -50 52 -95 33z"/>
<path d="M8930 10361 c-71 -26 -269 -120 -280 -132 -3 -3 -23 -16 -45 -29 -60
-37 -194 -146 -249 -204 -69 -72 -156 -181 -156 -195 0 -6 -4 -11 -9 -11 -11
0 -126 -230 -145 -290 -24 -77 -44 -153 -50 -190 -30 -201 -23 -368 20 -518
24 -81 89 -223 106 -230 5 -2 8 -9 8 -14 0 -29 126 -172 209 -237 110 -87 266
-165 373 -187 172 -34 333 -37 458 -9 8 2 26 6 40 9 98 22 277 114 367 191
186 156 323 360 402 603 17 51 33 108 35 127 2 19 7 38 9 42 10 16 20 131 20
233 1 110 -4 151 -28 275 -9 43 -9 42 -17 65 -3 8 -14 38 -23 65 -48 139 -135
276 -245 385 -101 102 -195 165 -308 208 l-50 19 -75 -56 c-125 -93 -139 -105
-186 -145 -69 -58 -191 -179 -187 -183 2 -3 38 -13 79 -23 75 -19 169 -57 175
-72 2 -4 8 -8 13 -8 19 0 99 -62 172 -134 139 -138 260 -366 296 -556 15 -82
8 -293 -13 -369 -46 -166 -128 -280 -252 -350 -149 -85 -370 -87 -519 -5 -79
44 -192 157 -234 234 -55 103 -102 207 -100 223 0 1 -2 9 -4 17 -8 25 -26 103
-33 140 -14 80 -8 300 10 385 9 37 46 160 55 180 79 179 158 309 250 415 81
95 213 220 256 245 14 9 16 15 7 31 -11 21 -67 84 -74 84 -1 -1 -37 -14 -78
-29z"/>
<path d="M6660 10368 c-30 -4 -66 -9 -80 -11 -42 -6 -161 -47 -230 -79 -141
-65 -313 -202 -416 -333 -21 -27 -41 -52 -44 -55 -37 -35 -194 -331 -204 -385
-2 -5 -12 -40 -24 -77 -47 -148 -66 -276 -66 -443 0 -131 7 -206 24 -264 5
-17 9 -35 9 -39 3 -25 28 -95 61 -167 72 -156 205 -289 350 -349 25 -10 54
-22 65 -27 21 -10 45 -16 105 -25 54 -9 224 -11 235 -3 6 5 22 10 37 13 14 2
35 9 45 14 10 6 22 10 26 10 24 0 142 86 207 152 72 71 162 197 209 288 12 23
23 42 24 42 2 0 4 -91 5 -202 0 -112 1 -286 2 -388 3 -233 -7 -339 -46 -495
-14 -59 -73 -163 -121 -212 -83 -88 -174 -122 -315 -119 -121 3 -194 38 -284
135 -31 33 -32 33 -51 15 -11 -11 -86 -82 -168 -159 -81 -77 -154 -146 -161
-153 -8 -7 -14 -17 -14 -21 0 -12 35 -41 48 -41 7 0 12 -4 12 -10 0 -22 166
-85 250 -94 19 -2 40 -5 45 -6 6 -1 12 -2 15 -1 3 1 39 4 80 6 65 3 113 10
195 29 38 8 176 68 239 103 104 58 232 158 310 242 23 25 48 52 56 61 57 61
177 233 201 288 8 18 17 32 21 32 5 0 8 9 8 20 0 11 5 20 10 20 6 0 10 9 10
20 0 11 5 20 10 20 6 0 10 5 10 11 0 5 8 29 19 52 35 78 73 191 99 297 l26
105 3 763 c3 438 0 762 -5 762 -10 0 -146 -46 -177 -60 -11 -4 -69 -25 -130
-45 -60 -20 -124 -43 -142 -51 -17 -8 -36 -14 -42 -14 -6 0 -11 -3 -11 -7 -1
-5 -3 -89 -5 -188 -4 -191 -11 -283 -26 -353 -5 -23 -12 -59 -15 -80 -8 -48
-55 -186 -84 -242 -87 -171 -214 -252 -379 -243 -121 7 -218 75 -300 212 -37
62 -98 222 -107 280 -2 14 -6 37 -9 51 -15 58 -14 326 0 400 15 78 53 201 86
276 10 24 18 47 18 51 0 3 3 9 8 12 4 3 21 31 37 61 17 30 34 60 38 65 4 6 26
34 49 63 38 51 131 130 181 156 85 44 192 56 273 31 30 -10 55 -21 55 -24 0
-3 13 -12 30 -19 35 -16 161 -138 186 -182 10 -16 22 -30 26 -30 4 0 8 -7 8
-15 0 -21 33 -19 86 5 42 20 94 42 104 45 3 1 19 7 35 14 17 8 39 17 50 22 92
38 155 69 155 77 0 10 -87 129 -116 158 -71 71 -266 187 -334 199 -16 3 -42
10 -57 16 -15 6 -29 10 -31 9 -1 0 -17 2 -35 5 -53 10 -208 12 -267 3z"/>
<path d="M18148 10375 c-2 -2 -28 -5 -58 -9 -66 -6 -86 -11 -159 -32 -31 -9
-60 -17 -66 -19 -10 -2 -18 -5 -79 -29 -101 -38 -281 -146 -344 -205 -18 -17
-35 -31 -37 -31 -9 0 -121 -119 -170 -180 -117 -145 -207 -319 -251 -485 -10
-37 -16 -64 -19 -90 -2 -16 -8 -51 -13 -76 -13 -68 -6 -273 12 -361 9 -43 28
-108 42 -145 28 -74 84 -186 96 -191 5 -2 8 -10 8 -18 0 -8 3 -14 8 -14 4 -1
22 -22 41 -48 29 -39 91 -99 163 -157 71 -58 219 -126 326 -151 37 -9 76 -18
87 -21 39 -9 227 -9 293 -1 70 9 186 38 237 59 17 7 32 13 35 14 75 25 288
145 298 167 2 5 8 8 13 8 24 0 222 189 305 290 16 19 32 37 37 38 16 8 5 32
-33 69 -37 38 -41 39 -57 24 -49 -46 -237 -193 -284 -223 -115 -74 -230 -127
-306 -143 -56 -12 -180 -12 -238 0 -62 13 -178 61 -183 76 -2 5 -8 9 -14 9
-16 0 -86 57 -158 128 l-65 64 75 37 c41 21 90 46 109 57 67 38 327 213 361
243 19 17 38 31 41 31 3 0 17 10 31 23 14 12 52 44 84 71 135 114 324 318 385
416 84 133 113 218 112 325 -2 253 -173 433 -450 471 -42 6 -211 13 -215 9z
m-64 -293 c79 -27 151 -101 182 -187 50 -140 0 -321 -148 -530 -77 -109 -294
-331 -403 -411 -44 -32 -82 -61 -85 -64 -3 -3 -16 -11 -30 -19 -14 -8 -35 -20
-46 -28 -19 -12 -23 -11 -39 13 -9 15 -18 32 -19 38 -1 6 -7 20 -13 31 -14 27
-51 133 -58 170 -14 69 -16 84 -18 149 -3 63 0 96 18 191 20 107 124 350 173
403 6 7 12 17 12 22 0 14 133 145 181 177 87 60 199 77 293 45z"/>
<path d="M14653 10355 c-49 -14 -142 -53 -153 -64 -3 -4 -21 -18 -40 -32 -54
-41 -93 -81 -131 -135 -19 -27 -36 -51 -39 -54 -6 -5 -30 -58 -30 -65 0 -2 16
-20 35 -41 l35 -37 53 55 c68 71 98 89 157 93 53 3 72 -7 106 -60 19 -28 19
-70 21 -1620 1 -874 2 -1598 2 -1607 1 -16 10 -14 81 12 44 16 156 55 250 87
136 46 172 62 175 78 3 11 7 571 9 1245 2 674 6 1241 9 1260 3 19 8 44 10 55
6 26 18 93 18 100 0 2 9 34 19 70 45 157 136 283 235 325 52 23 138 29 205 16
115 -22 257 -139 321 -263 18 -38 37 -69 42 -71 4 -2 7 -11 7 -21 0 -9 4 -21
8 -27 10 -11 34 -89 59 -189 29 -121 23 -456 -13 -617 -3 -15 -5 -30 -5 -33 0
-2 -5 -19 -10 -37 -6 -18 -12 -44 -15 -58 -10 -50 -94 -206 -131 -244 -50 -52
-72 -65 -130 -80 -109 -29 -227 7 -313 94 -27 28 -50 47 -50 43 0 -5 -12 -22
-27 -38 -16 -16 -26 -30 -23 -30 6 0 -93 -139 -102 -143 -5 -2 -8 -9 -8 -15 0
-7 -11 -25 -25 -41 -14 -16 -24 -34 -22 -40 6 -19 110 -75 172 -92 65 -19 263
-25 345 -11 471 79 835 633 833 1267 0 140 -15 247 -49 355 -26 83 -95 235
-106 235 -5 0 -8 5 -8 11 0 6 -6 17 -12 24 -29 32 -38 45 -38 52 0 5 -8 16
-17 24 -10 9 -32 32 -48 50 -84 94 -242 188 -364 215 -63 14 -231 13 -283 -2
-170 -48 -318 -179 -442 -390 -41 -70 -46 -75 -47 -49 -9 260 -101 401 -291
445 -61 14 -174 11 -235 -5z"/>
</g>
</svg>
